HIERARCHY
ROOT Hips
{
	OFFSET 0.00000 0.00000 0.00000
	CHANNELS 6 Xposition Yposition Zposition Zrotation Yrotation Xrotation 
	JOINT LHipJoint
	{
		OFFSET 0 0 0
		CHANNELS 3 Zrotation Yrotation Xrotation
		JOINT LeftHip
		{
			OFFSET 1.28366 -1.58472 0.87544
			CHANNELS 3 Zrotation Yrotation Xrotation
			JOINT LeftKnee
			{
				OFFSET 2.18587 -6.00562 0.00000
				CHANNELS 3 Zrotation Yrotation Xrotation
				JOINT LeftAnkle
				{
					OFFSET 2.39085 -6.56880 0.00000
					CHANNELS 3 Zrotation Yrotation Xrotation
					JOINT LeftToe
					{
						OFFSET 0.12003 -0.32979 2.03101
						CHANNELS 3 Zrotation Yrotation Xrotation
						End Site
						{
							OFFSET 0.00000 -0.00000 1.04074
						}
					}
				}
			}
		}
	}
	JOINT RHipJoint
	{
		OFFSET 0 0 0
		CHANNELS 3 Zrotation Yrotation Xrotation
		JOINT RightHip
		{
			OFFSET -1.21795 -1.58472 0.87544
			CHANNELS 3 Zrotation Yrotation Xrotation
			JOINT RightKnee
			{
				OFFSET -2.22714 -6.11902 0.00000
				CHANNELS 3 Zrotation Yrotation Xrotation
				JOINT RightAnkle
				{
					OFFSET -2.40306 -6.60235 0.00000
					CHANNELS 3 Zrotation Yrotation Xrotation
					JOINT RightToe
					{
						OFFSET -0.15519 -0.42640 1.91430
						CHANNELS 3 Zrotation Yrotation Xrotation
						End Site
						{
							OFFSET -0.00000 -0.00000 0.99082
						}
					}
				}
			}
		}
	}
	JOINT lowerback
	{
		OFFSET 0 0 0
		CHANNELS 3 Zrotation Yrotation Xrotation
		JOINT Chest
		{
			OFFSET 0.01180 1.76430 -0.06387
			CHANNELS 3 Zrotation Yrotation Xrotation
			JOINT Chest2
			{
				OFFSET -0.00388 1.74651 0.09536
				CHANNELS 3 Zrotation Yrotation Xrotation
				JOINT lowerneck
				{
					OFFSET 0 0 0
					CHANNELS 3 Zrotation Yrotation Xrotation
					JOINT Neck
					{
						OFFSET 0.04111 1.46174 0.14397
						CHANNELS 3 Zrotation Yrotation Xrotation
						JOINT Head
						{
							OFFSET 0.00502 1.44580 -0.31711
							CHANNELS 3 Zrotation Yrotation Xrotation
							End Site
							{
								OFFSET -0.00395 1.49251 -0.12327
							}
						}
					}
				}
				JOINT LeftCollar
				{
					OFFSET 0 0 0
					CHANNELS 3 Zrotation Yrotation Xrotation
					JOINT LeftShoulder
					{
						OFFSET 2.70917 1.34870 -0.15417
CHANNELS 3 Zrotation Xrotation Yrotation
						JOINT LeftElbow
						{
OFFSET 0 -4.466100 -0.000000
CHANNELS 3 Zrotation Xrotation Yrotation
							JOINT LeftWrist
							{
OFFSET 0 -3.414140 0.000000
CHANNELS 3 Zrotation Xrotation Yrotation
								JOINT lhand
								{
									OFFSET 0 0 0
CHANNELS 3 Zrotation Xrotation Yrotation
									JOINT LFingers
									{
OFFSET 0 -0.328300 0.000000
CHANNELS 3 Zrotation Xrotation Yrotation
										End Site
										{
OFFSET 0 -0.264680 0.000000
										}
									}
								}
								JOINT LThumb
								{
OFFSET 0 0.000000 0.000000
CHANNELS 3 Zrotation Xrotation Yrotation
									End Site
									{
OFFSET 0 -0.268720 0.268720
									}
								}
							}
						}
					}
				}
				JOINT RightCollar
				{
					OFFSET 0 0 0
					CHANNELS 3 Zrotation Yrotation Xrotation
					JOINT RightShoulder
					{
						OFFSET -3.06316 1.13725 -0.10883
CHANNELS 3 Zrotation Xrotation Yrotation
						JOINT RightElbow
						{
OFFSET 0 -4.404310 0.000000
CHANNELS 3 Zrotation Xrotation Yrotation
							JOINT RightWrist
							{
OFFSET 0 -3.046880 0.000000
CHANNELS 3 Zrotation Xrotation Yrotation
								JOINT rhand
								{
									OFFSET 0 0 0
CHANNELS 3 Zrotation Xrotation Yrotation
									JOINT RFingers
									{
OFFSET 0 -0.500490 0.000000
CHANNELS 3 Zrotation Xrotation Yrotation
										End Site
										{
OFFSET 0 -0.403510 0.000000
										}
									}
								}
								JOINT RThumb
								{
OFFSET 0 0.000000 0.000000
CHANNELS 3 Zrotation Xrotation Yrotation
									End Site
									{
OFFSET 0 -0.409670 0.409670
									}
								}
							}
						}
					}
				}
			}
		}
	}
}
MOTION
Frames: 12
Frame Time: 0.008333333333333333
-0.073157 14.718873 3.311041 -177.648948 -106.543531 900.614745 0.000000 0.000000 0.000000 -12.125890 9.147035 -39.481028 10.642034 17.754839 61.612692 -1.955624 -23.907592 7.116047 0.408292 -4.098214 -11.353645 0.000000 0.000000 0.000000 24.252972 -11.034503 -31.281116 -10.563268 -17.714586 61.354875 0.972184 -17.155013 -4.948297 -11.677297 -18.250876 64.962281 1.099709 5.775827 7.874198 -1.710486 7.713266 -6.623640 -3.766386 3.513840 -11.144596 12.632384 13.900086 -10.426146 0.846477 16.586876 18.306356 0.170011 8.782167 8.415402 0.000000 0.000000 0.000000 77.344840 -16.762202 -26.777900 16.271069 -25.886843 3.763580 2.787444 1.451200 -6.981210 0.000000 0.000000 0.000000 -7.125000 0.000000 0.000000 -19.992283 36.288487 -4.507613 0.000000 0.000000 0.000000 -63.185786 -9.594162 69.174412 -141.790498 -46.971534 -102.881114 3.508967 -37.420838 -6.042272 0.000000 0.000000 0.000000 7.125000 0.000000 0.000000 21.967801 23.889775 12.067669
-0.039860 14.649047 3.989497 -176.667397 -106.338683 898.280170 0.000000 0.000000 0.000000 -8.261803 7.520185 -36.889828 10.880731 17.875890 62.393167 -0.542021 -16.782165 -5.455105 1.609870 -8.001180 -22.717637 0.000000 0.000000 0.000000 22.244993 -8.837692 -27.936014 -10.413092 -17.635746 60.860373 2.157731 -25.055366 -6.953560 -11.634333 -18.231759 64.824924 1.730377 5.696661 8.654530 -1.860321 7.689837 -6.289367 -4.332184 3.448976 -11.132348 12.540460 13.798221 -10.058907 2.054089 16.250027 18.811243 0.510632 8.739008 8.397356 0.000000 0.000000 0.000000 77.120002 -16.680615 -25.472196 15.884072 -25.363166 3.596152 3.632646 3.301706 -6.381466 0.000000 0.000000 0.000000 -7.125000 0.000000 0.000000 -19.165481 35.775009 -4.556354 0.000000 0.000000 0.000000 -61.564596 -11.917171 71.005969 -138.783682 -48.773496 -100.650602 3.279542 -31.450075 -6.513951 0.000000 0.000000 0.000000 7.125000 0.000000 0.000000 21.730486 23.454782 12.154596
-0.034749 14.674249 4.724659 -175.419576 -105.535010 897.551987 0.000000 0.000000 0.000000 -5.062813 3.221521 -31.830288 8.793860 16.669662 55.369076 0.272866 -6.296218 -9.651153 0.834949 -5.828806 -16.288663 0.000000 0.000000 0.000000 19.312375 -6.513341 -27.232762 -10.554049 -17.709793 61.324611 2.631192 -27.409241 -7.839527 -11.382269 -18.117151 64.016955 2.250414 5.681529 7.360151 -1.991410 7.693930 -6.476723 -4.603599 3.433804 -10.478176 12.556370 13.692102 -10.001045 2.513342 16.001653 19.180539 0.633412 8.672005 8.466489 0.000000 0.000000 0.000000 76.903761 -15.241226 -25.122224 15.584955 -24.954587 3.469000 3.985734 3.730964 -6.143168 0.000000 0.000000 0.000000 -7.125000 0.000000 0.000000 -18.825825 35.570179 -4.566804 0.000000 0.000000 0.000000 -59.757364 -12.603835 72.542305 -137.096948 -49.698779 -99.373233 3.035920 -26.931649 -7.008925 0.000000 0.000000 0.000000 7.125000 0.000000 0.000000 21.482487 22.996977 12.240603
-0.019102 14.624936 5.512776 -169.381270 -104.221013 892.909716 0.000000 0.000000 0.000000 -6.298678 1.013699 -27.168299 6.565468 14.953819 47.209345 0.355916 -7.726057 -11.152834 1.458808 -7.631393 -21.601163 0.000000 0.000000 0.000000 15.021743 -4.543055 -28.716612 -11.307243 -18.081715 63.774729 3.126515 -29.570488 -8.861356 -10.964616 -17.917501 62.666327 1.769585 6.094762 5.359795 -2.155678 8.129193 -6.768080 -4.338431 3.707076 -9.616733 12.424821 13.472570 -10.375689 2.059985 15.765456 19.691171 0.525831 8.517727 8.720952 0.000000 0.000000 0.000000 76.352990 -13.945841 -26.071615 15.188917 -24.408628 3.303622 4.784330 4.568579 -5.029810 0.000000 0.000000 0.000000 -7.125000 0.000000 0.000000 -17.935212 34.554453 -4.797254 0.000000 0.000000 0.000000 -59.470026 -11.825450 73.290010 -136.423607 -50.051655 -98.858283 2.055396 -21.929426 -7.566540 0.000000 0.000000 0.000000 7.125000 0.000000 0.000000 20.722863 22.485049 12.007673
0.055453 14.584898 6.264353 -161.916815 -103.028085 886.358781 0.000000 0.000000 0.000000 -11.215325 4.275323 -27.132473 6.165905 14.587261 45.644075 0.652614 -9.066770 -14.805136 1.026105 -6.434447 -18.053582 0.000000 0.000000 0.000000 12.120612 -4.103833 -32.272311 -12.648984 -18.651199 68.031155 4.548924 -34.725367 -11.051331 -9.613965 -17.186072 58.188883 1.409057 6.478748 5.736125 -2.355535 8.586101 -7.363194 -4.520790 3.898084 -10.493961 12.412777 13.342404 -10.377695 1.663132 15.679000 19.842919 0.395791 8.442859 8.800330 0.000000 0.000000 0.000000 75.281792 -13.412393 -24.999529 14.670447 -23.684902 3.092401 4.793489 5.383777 -5.741631 0.000000 0.000000 0.000000 -7.125000 0.000000 0.000000 -18.086659 35.234178 -4.526857 0.000000 0.000000 0.000000 -59.240437 -10.907609 74.021126 -134.879631 -50.826829 -97.667787 1.605103 -19.757926 -7.221223 0.000000 0.000000 0.000000 7.125000 0.000000 0.000000 20.464343 22.811183 11.671653
0.149849 14.607220 6.882761 -157.682735 -102.356840 882.299619 0.000000 0.000000 0.000000 -14.683306 6.754577 -28.260883 6.397340 14.802466 46.555937 0.702564 -10.745536 -15.681943 0.625627 -5.061303 -14.083489 0.000000 0.000000 0.000000 12.518670 -5.358900 -36.154445 -13.632056 -18.998465 71.077419 3.858607 -32.279315 -11.386026 -9.564977 -17.156887 58.022962 1.061439 6.601095 6.937649 -2.320171 8.732374 -7.362151 -4.491883 3.961228 -11.264306 12.254568 13.412863 -10.468860 1.430904 15.848490 19.229218 0.344108 8.481007 8.616325 0.000000 0.000000 0.000000 74.296856 -13.548460 -22.291304 14.155614 -22.956682 2.888500 4.115889 5.650190 -7.688075 0.000000 0.000000 0.000000 -7.125000 0.000000 0.000000 -19.101587 37.041537 -3.915675 0.000000 0.000000 0.000000 -58.011468 -10.548710 73.990926 -132.348102 -52.002970 -95.688751 1.422714 -18.147843 -5.709311 0.000000 0.000000 0.000000 7.125000 0.000000 0.000000 20.571853 24.229117 11.014132
0.202003 14.614714 7.361965 -159.641030 -102.683057 884.835663 0.000000 0.000000 0.000000 -16.024813 8.032963 -31.040497 7.175604 15.477477 49.534346 0.401689 -14.210304 -14.152654 0.411668 -4.117515 -11.407567 0.000000 0.000000 0.000000 17.120383 -9.056579 -40.832778 -14.111818 -19.147571 72.545711 1.282447 -19.539662 -8.090358 -11.069521 -17.968594 63.006587 1.100580 6.404607 6.546575 -2.335993 8.469310 -7.177818 -4.416931 3.853930 -10.829027 11.733246 13.319793 -10.829721 1.847584 15.677245 18.710932 0.520753 8.394736 8.410168 0.000000 0.000000 0.000000 74.211711 -14.026585 -20.371232 13.902655 -22.595338 2.790601 4.897914 4.338122 -10.571168 0.000000 0.000000 0.000000 -7.125000 0.000000 0.000000 -19.242005 39.830296 -2.562832 0.000000 0.000000 0.000000 -55.888779 -10.908852 73.465866 -130.355306 -52.850920 -94.109224 2.991540 -18.395313 -1.024327 0.000000 0.000000 0.000000 7.125000 0.000000 0.000000 22.554117 28.553874 9.735701
0.207741 14.646937 7.750480 -160.835172 -103.155524 886.376735 0.000000 0.000000 0.000000 -16.205505 9.793770 -34.131293 8.296817 16.332481 53.623579 -0.484050 -19.548091 -9.200410 0.498074 -4.517540 -12.538751 0.000000 0.000000 0.000000 22.230341 -11.686383 -42.309467 -13.059888 -18.802613 69.310455 1.066523 -17.919251 -5.921373 -11.364442 -18.108875 63.959557 0.895552 6.307325 5.850275 -2.683089 8.278681 -6.903369 -4.523624 3.797544 -10.093504 11.318499 13.027580 -11.474151 2.491669 15.120063 18.891936 0.757340 8.162920 8.471865 0.000000 0.000000 0.000000 74.436879 -15.503896 -17.181015 13.649465 -22.231386 2.694082 6.470166 2.471690 -16.264516 0.000000 0.000000 0.000000 -7.125000 0.000000 0.000000 -19.767314 45.368469 0.190554 0.000000 0.000000 0.000000 -54.185380 -12.729896 73.236124 -128.190899 -53.699169 -92.374244 0.823238 -17.207911 1.589025 0.000000 0.000000 0.000000 7.125000 0.000000 0.000000 21.514470 31.058679 7.829187
0.226546 14.641985 8.072317 -160.305063 -103.401609 885.433022 0.000000 0.000000 0.000000 -14.803008 10.326722 -35.955801 9.507902 17.123378 57.830136 -1.384416 -24.024206 -4.914597 1.476321 -7.671678 -21.724040 0.000000 0.000000 0.000000 24.041774 -10.605567 -39.006523 -11.297117 -18.076926 63.742171 2.820565 -28.215660 -8.532642 -11.092362 -17.979947 63.081084 0.533974 6.398126 6.271783 -3.289293 8.308787 -6.621581 -5.005014 3.818733 -9.989377 10.767222 12.536274 -11.755271 3.453660 14.301335 18.890188 1.046466 7.829746 8.370303 0.000000 0.000000 0.000000 74.807740 -18.220532 -11.912690 13.264673 -21.673712 2.550197 7.095174 1.110649 -22.497721 0.000000 0.000000 0.000000 -7.125000 0.000000 0.000000 -21.948538 51.288719 3.545656 0.000000 0.000000 0.000000 -53.774951 -15.337653 73.164878 -125.810671 -54.551005 -90.445414 -5.698627 -14.342588 -0.319730 0.000000 0.000000 0.000000 7.125000 0.000000 0.000000 16.224108 29.450470 6.379637
0.271154 14.601204 8.417141 -156.049528 -103.894937 880.570900 0.000000 0.000000 0.000000 -14.396785 7.157993 -34.035842 9.571315 17.161338 58.045281 0.124453 -15.828350 -12.447309 1.963264 -8.786822 -25.132276 0.000000 0.000000 0.000000 21.830198 -7.102488 -35.696065 -10.761872 -17.816560 62.005844 4.457216 -34.356205 -12.089013 -10.833816 -17.852734 62.240647 0.178286 6.403625 7.375837 -4.057975 8.192222 -6.380365 -5.749084 3.737840 -10.325257 10.172741 12.253065 -11.528233 3.857898 13.978259 18.761476 1.189034 7.674452 8.196998 0.000000 0.000000 0.000000 74.378855 -20.363618 -8.746643 13.700633 -22.304711 2.713721 12.887356 0.241254 -28.273588 0.000000 0.000000 0.000000 -7.125000 0.000000 0.000000 -19.663868 57.770893 6.298391 0.000000 0.000000 0.000000 -54.089547 -17.988440 73.315980 -122.481078 -55.610681 -87.714729 -16.056038 -8.879302 -6.756140 0.000000 0.000000 0.000000 7.125000 0.000000 0.000000 7.869863 22.959265 4.194306
0.311805 14.526579 8.859852 -151.142945 -102.755292 876.226546 0.000000 0.000000 0.000000 -15.021991 3.130967 -30.013212 7.960606 16.088732 52.418207 0.981210 -7.423885 -17.702723 1.039283 -6.483271 -18.193377 0.000000 0.000000 0.000000 19.320943 -3.687372 -36.027640 -11.391446 -18.120879 64.045791 5.031344 -36.071611 -14.670369 -10.480211 -17.671134 61.081512 1.151249 6.747460 6.938542 -4.380512 8.749434 -6.455263 -6.631650 3.946208 -9.901263 9.565693 12.387746 -11.718431 3.312462 14.379719 19.451108 1.189342 7.783072 8.462676 0.000000 0.000000 0.000000 72.862595 -19.335972 -13.518916 16.579667 -26.296669 3.901257 21.867350 -2.837839 -33.085909 0.000000 0.000000 0.000000 -7.125000 0.000000 0.000000 -13.402740 64.576476 6.398185 0.000000 0.000000 0.000000 -54.363954 -19.305894 73.207589 -118.562632 -56.680407 -84.460227 -30.173931 -7.959132 -17.129784 0.000000 0.000000 0.000000 7.125000 0.000000 0.000000 -1.470683 10.342164 -1.209779
0.367787 14.375347 9.310722 -138.761596 -101.120459 865.815088 0.000000 0.000000 0.000000 -18.083116 1.915207 -29.129167 7.146541 15.454081 49.426444 1.478160 -5.466902 -21.851951 1.211048 -6.980703 -19.658363 0.000000 0.000000 0.000000 15.723308 -1.304029 -40.249935 -12.962579 -18.767656 69.008343 4.760357 -35.261970 -15.892427 -10.296253 -17.573086 60.473993 1.796738 7.396390 6.106421 -5.334196 9.581494 -7.312689 -8.064481 4.240122 -10.006224 9.198444 12.665112 -11.961714 3.143039 14.853382 19.983713 1.285128 7.969415 8.680494 0.000000 0.000000 0.000000 72.536657 -15.918419 -21.289457 22.349985 -33.361482 6.781273 27.132303 -7.484647 -35.685855 0.000000 0.000000 0.000000 -7.125000 0.000000 0.000000 -9.087192 68.684163 5.175358 0.000000 0.000000 0.000000 -53.537788 -18.690764 72.544951 -117.081047 -57.038856 -83.219720 -44.422612 -15.760786 -26.484854 0.000000 0.000000 0.000000 7.125000 0.000000 0.000000 -8.335281 -4.604719 -9.078294
